<?xml version="1.0" standalone="no"?>
<!DOCTYPE svg PUBLIC "-//W3C//DTD SVG 20010904//EN"
 "http://www.w3.org/TR/2001/REC-SVG-20010904/DTD/svg10.dtd">
<svg version="1.0" xmlns="http://www.w3.org/2000/svg"
 width="200.000000pt" height="200.000000pt" viewBox="0 0 200.000000 200.000000"
 preserveAspectRatio="xMidYMid meet">

<g transform="translate(0.000000,200.000000) scale(0.100000,-0.100000)"
fill="#000000" stroke="none">
<path d="M0 1265 l0 -735 1000 0 1000 0 0 735 0 735 -1000 0 -1000 0 0 -735z
m1472 477 c54 -31 98 -60 98 -64 0 -6 -63 -44 -222 -134 l-57 -32 -98 55 c-54
31 -120 68 -146 83 l-49 27 148 86 147 86 41 -25 c23 -13 85 -50 138 -82z
m-636 21 c73 -43 133 -81 134 -85 0 -3 -63 -42 -140 -86 l-140 -81 -141 80
c-78 44 -143 79 -145 76 -2 -2 59 -39 136 -83 l140 -79 0 -162 c0 -90 -3 -163
-6 -163 -3 0 -68 35 -145 77 l-139 78 0 166 c0 125 3 169 13 177 29 24 272
162 286 162 8 0 74 -35 147 -77z m754 -265 l0 -163 -93 -52 c-50 -29 -116 -66
-144 -83 l-53 -30 0 167 0 168 138 77 c75 43 140 78 145 78 4 0 7 -73 7 -162z
m-741 -439 l140 -80 -1 -165 -2 -164 -65 36 c-36 20 -103 57 -148 82 l-83 46
0 163 c0 90 4 163 9 163 5 0 72 -36 150 -81z m439 -81 l-3 -163 -85 -50 c-47
-28 -111 -65 -142 -83 l-58 -32 0 167 1 168 137 77 c75 42 141 77 145 78 5 0
7 -73 5 -162z"/>
<path d="M461 426 c-7 -8 -11 -27 -9 -43 2 -22 13 -33 51 -51 36 -17 47 -28
47 -46 0 -44 -62 -50 -84 -8 l-15 27 -1 -32 c0 -33 0 -33 50 -33 42 0 52 4 67
26 15 23 15 29 2 52 -8 14 -29 30 -47 36 -40 14 -54 33 -41 58 15 28 56 23 74
-9 l15 -28 -2 30 c-3 28 -6 30 -49 33 -31 2 -50 -2 -58 -12z"/>
<path d="M1378 433 c8 -3 12 -32 12 -93 0 -61 -4 -90 -12 -93 -7 -3 7 -6 32
-6 35 0 41 2 28 10 -26 15 -25 89 0 89 24 0 42 -19 42 -46 0 -38 11 -54 38
-54 24 0 24 1 9 18 -10 10 -17 27 -17 38 0 11 -5 25 -12 32 -9 9 -8 16 5 30
23 25 21 59 -2 72 -11 5 -46 10 -78 9 -32 0 -52 -3 -45 -6z m93 -13 c37 -20
17 -70 -28 -70 -20 0 -23 5 -23 40 0 43 13 50 51 30z"/>
<path d="M598 348 c7 -7 12 -28 12 -47 0 -52 9 -60 65 -60 l50 1 -5 56 c-5 52
-7 57 -30 60 -20 3 -23 1 -12 -9 17 -18 15 -74 -3 -89 -23 -19 -35 -2 -35 51
0 47 -1 49 -27 49 -21 0 -24 -3 -15 -12z"/>
<path d="M766 338 c-21 -30 -20 -61 2 -81 22 -20 63 -22 80 -5 21 21 13 32 -9
12 -26 -23 -53 -9 -57 30 -6 48 40 78 52 34 4 -18 8 -20 17 -11 9 9 9 16 -1
28 -19 23 -66 19 -84 -7z"/>
<path d="M897 342 c-37 -41 -11 -102 42 -102 29 0 60 25 47 38 -4 4 -12 -1
-17 -11 -12 -21 -45 -22 -53 -1 -10 25 -7 59 6 72 16 16 39 15 32 -2 -7 -18
15 -31 28 -18 17 17 -9 42 -42 42 -15 0 -34 -8 -43 -18z"/>
<path d="M1026 344 c-18 -18 -21 -56 -6 -85 15 -27 75 -26 90 1 6 11 7 20 1
20 -5 0 -12 -7 -15 -16 -9 -24 -50 -14 -54 14 -3 20 1 22 37 22 29 0 41 4 41
14 0 22 -29 46 -55 46 -13 0 -31 -7 -39 -16z m58 -9 c4 -11 -1 -15 -19 -15
-24 0 -32 10 -18 23 11 12 31 8 37 -8z"/>
<path d="M1151 346 c-17 -20 1 -52 34 -60 29 -7 33 -24 9 -33 -10 -4 -22 1
-30 12 -15 21 -30 14 -21 -10 4 -9 19 -15 40 -15 62 0 73 47 16 70 -16 7 -29
19 -29 26 0 19 19 18 42 -3 17 -15 18 -15 18 5 0 18 -6 22 -34 22 -18 0 -39
-6 -45 -14z"/>
<path d="M1267 353 c-16 -15 -5 -45 23 -61 34 -20 40 -42 10 -42 -12 0 -24 10
-30 23 -8 21 -9 21 -9 -5 -1 -25 3 -28 32 -28 17 0 38 4 45 9 23 14 9 45 -26
60 -35 16 -41 28 -16 38 11 4 22 -1 30 -12 13 -18 14 -18 14 3 0 18 -6 22 -33
22 -19 0 -37 -3 -40 -7z"/>
<path d="M608 125 c5 -11 12 -27 15 -35 5 -13 6 -13 6 1 1 8 -6 24 -15 35 -15
19 -15 19 -6 -1z"/>
<path d="M820 131 c0 -6 5 -13 10 -16 6 -3 10 1 10 9 0 9 -4 16 -10 16 -5 0
-10 -4 -10 -9z"/>
<path d="M851 114 c-6 -15 -9 -29 -7 -32 3 -2 10 8 16 23 14 36 7 43 -9 9z"/>
<path d="M981 109 c-1 -23 3 -26 32 -26 17 0 24 2 15 4 -10 3 -18 11 -18 20 0
10 6 13 18 8 13 -5 14 -3 5 6 -14 14 -33 4 -34 -19 -1 -11 -4 -8 -9 8 l-8 25
-1 -26z"/>
<path d="M1174 115 c-7 -17 3 -35 19 -34 9 0 9 2 0 6 -7 2 -13 12 -13 20 0 10
6 13 16 9 8 -3 12 -2 9 4 -9 15 -25 12 -31 -5z"/>
<path d="M1265 122 c-12 -13 -4 -42 13 -42 13 0 14 2 4 9 -11 7 -11 9 2 14 9
4 23 4 32 0 13 -5 13 -7 2 -14 -9 -6 -9 -9 -1 -9 20 0 26 20 8 26 -11 5 -13 9
-5 14 6 4 -3 7 -20 7 -16 0 -32 -3 -35 -5z"/>
<path d="M685 108 c-8 -20 -30 -24 -38 -8 -3 6 -4 5 -3 -2 2 -8 20 -14 44 -15
37 -1 42 1 41 20 -1 17 -2 18 -6 5 -2 -10 -8 -18 -13 -18 -5 0 -10 8 -13 18
-4 16 -4 16 -12 0z"/>
<path d="M742 100 c0 -14 2 -19 5 -12 2 6 2 18 0 25 -3 6 -5 1 -5 -13z"/>
<path d="M893 113 c-13 -2 -23 -11 -23 -19 0 -21 28 -17 40 6 6 11 9 19 8 19
-2 -1 -13 -4 -25 -6z"/>
<path d="M1093 114 c25 -8 21 -27 -4 -21 -16 4 -19 3 -11 -5 14 -14 45 -2 40
15 -3 6 -13 13 -24 14 -16 2 -16 1 -1 -3z"/>
<path d="M800 101 c0 -6 5 -13 10 -16 6 -3 10 1 10 9 0 9 -4 16 -10 16 -5 0
-10 -4 -10 -9z"/>
<path d="M1359 102 c11 -8 11 -10 0 -15 -10 -4 -8 -6 4 -6 21 -1 18 21 -4 27
-12 3 -12 2 0 -6z"/>
<path d="M925 90 c3 -5 8 -10 11 -10 2 0 4 5 4 10 0 6 -5 10 -11 10 -5 0 -7
-4 -4 -10z"/>
<path d="M1228 83 c7 -3 16 -2 19 1 4 3 -2 6 -13 5 -11 0 -14 -3 -6 -6z"/>
</g>
</svg>
